<?xml version="1.0" encoding="UTF-8"?>
<svg id="Layer_1" data-name="Layer 1" xmlns="http://www.w3.org/2000/svg" width="1156.39" height="253.71" xmlns:xlink="http://www.w3.org/1999/xlink" viewBox="0 0 1156.39 253.71">
  <defs>
    <linearGradient id="linear-gradient" x1="828.61" y1="707.35" x2="1156.39" y2="707.35" gradientTransform="translate(0 -580.09)" gradientUnits="userSpaceOnUse">
      <stop offset="0" stop-color="#7dff51"/>
      <stop offset="1" stop-color="#00dbb7"/>
    </linearGradient>
  </defs>
  <path d="M1139.21,29.81c-14-16.6-34.3-26-56-26h-110.4c-17.8,0-34.3,6.4-47,17.1-12.8,10.8-21.9,25.9-24.9,43.4l-16.8,94.8c-4.8,27.4-30.6,40-46.4,40.1l-9.1,51.5h237.2c35.6,0,65.9-25.5,72-60.6l17.5-100.8c3.7-21.3-2.2-42.9-16.1-59.5h0ZM1103.21,79.11l-18.2,103.6c-1.7,9.6-9.9,16.6-19.7,16.6h-140.4c5.4-9.2,9.7-22.2,11-29.3l17.2-97.7c1.7-9.6,10.2-16.5,19.9-16.5h110.5c8.1,0,13.1,4.4,15.3,7.1,2.3,2.6,5.8,8.2,4.4,16.2h0Z" fill="url(#linear-gradient)"/>
  <path d="M570.01,121.81l-7.4,41.6c-5,28.3-19.9,38.7-52.9,38.7h-154.9l6.9-39.3h144.2c11.6.1,17.9-4.3,19.7-14.3l5.6-31.9c1.7-9.2-5.7-18.7-15.8-18.7h-102.7l6.9-39.3h98.2c33.1,0,57.9,30.8,52.2,63.2h0Z" fill="#0d0d1e"/>
  <path d="M634.31,142.21v-19.8h-14.5l-4.5,25.9c-1.8,10.3-8.1,14.7-20.2,14.6h-37l-6.9,39.3h47.8c34.3,0,49.8-10.8,55-40.2l3.5-19.8h-23.2,0Z" fill="#0d0d1e"/>
  <path d="M340.21,89.91l-10.1,58.1c-1.8,10.3-9.6,14.8-21.6,14.6h-73.2l-6.9,39.3h84c34.3,0,49.8-10.8,55-40.2l12.7-71.9h-39.9v.1h0Z" fill="#0d0d1e"/>
  <path d="M734.01,57.81c-4.6-.4-24.1-.4-24.1-.4h0c-53.3.7-91.3,33-91.3,78.9,0,36.2,27,61,68.7,65.5,4.6.4,24.1.4,24.1.4h0c53.3-.7,91.3-33,91.3-78.9,0-36.2-26.9-61-68.7-65.5h0ZM712.81,170.81h-12.2c-4.4,0-8.9-.6-13.2-1.6-18.8-4.4-29.6-16.8-29.6-34.3,0-27.2,20.7-46.1,50.8-46.1h12.2c4.4,0,8.9.6,13.2,1.6,18.8,4.4,29.6,16.8,29.6,34.3,0,27.2-20.7,46.1-50.8,46.1Z" fill="#0d0d1e"/>
  <path d="M213.81,89.91l-10.1,58.1c-1.8,10.3-9.5,14.8-21.6,14.6H40.91l10.7-60.1c.5-2.7,2.8-4.6,5.5-4.6h55.8l8-39.3H44.81c-14.4,0-26.7,10.3-29.2,24.5L.41,170.21c-2.9,16.6,9.9,31.7,26.7,31.7h158.8c34.3,0,49.8-10.8,55-40.2l12.7-71.9h-39.8v.1h0Z" fill="#0d0d1e"/>
  <polygon points="225.51 253.71 311.41 253.71 316.01 227.71 230.11 227.71 225.51 253.71" fill="#0d0d1e"/>
  <polygon points="96.31 253.71 149.81 253.71 154.41 227.71 100.81 227.71 96.31 253.71" fill="#0d0d1e"/>
  <polygon points="466.81 253.71 508.31 253.71 512.91 227.71 471.31 227.71 466.81 253.71" fill="#0d0d1e"/>
  <path d="M584.31,52.11l.6-15.9c15.4,1.1,20.7.4,28.6-.1-7.1-6.4-9.8-12.7-7.9-20.5,3-12.2,14.7-18,28-14.7s20.4,13.9,17.9,28c-3.9,22.6-14.9,24.3-67.2,23.2h0ZM629.91,15.31c-4.4-1.1-7.7.9-8.8,5.1-1.1,4.6,2,8.9,7.8,12.2,3.5-1.7,5.8-4.4,6.6-7.8,1.1-4.5-1.2-8.4-5.6-9.5Z" fill="#0d0d1e"/>
</svg>