<?xml version="1.0" encoding="UTF-8"?>
<svg id="Layer_1" data-name="Layer 1" xmlns="http://www.w3.org/2000/svg" width="984.6" height="163.2" xmlns:xlink="http://www.w3.org/1999/xlink" viewBox="0 0 984.6 163.2">
  <defs>
    <linearGradient id="linear-gradient" x1="0" y1="50.13" x2="216.54" y2="50.13" gradientTransform="translate(0 131.68) scale(1 -1)" gradientUnits="userSpaceOnUse">
      <stop offset="0" stop-color="#7dff51"/>
      <stop offset="1" stop-color="#00dbb7"/>
    </linearGradient>
  </defs>
  <path d="M813,34.9c-3-.3-9.4-.3-9.4-.3h0c-35.2.4-58.9,21.8-58.9,52.1,0,23.9,16.4,40.3,44,43.3,3,.3,10.8.3,10.8.3h0c26.8-.3,47.8-12.9,56.2-32.2h-26c-5.9,7.2-15.4,11.5-27,11.5h-5.1c-2.9,0-5.9-.4-8.7-1-11.4-2.7-18.3-9.8-19.4-20h87.9c.7-3.3,1.1-6.8,1.1-10.4-.1-24-18-40.4-45.5-43.3ZM802.8,55.3h4.5c2.9,0,5.9.4,8.7,1,9.4,2.2,15.8,7.5,18.4,15h-61.7c5.3-9.8,16.1-16,30.1-16Z" fill="#0a0a17"/>
  <path d="M525.1,33.6c-3-.3-15.9-.3-15.9-.3h0c-35.2.4-60.3,21.8-60.3,52.1,0,23.9,17.8,40.3,45.4,43.3,3,.3,15.9.3,15.9.3h0c35.2-.4,60.3-21.8,60.3-52.1,0-23.9-17.8-40.3-45.4-43.3ZM511,108.3h-8c-2.9,0-5.9-.4-8.7-1-12.4-2.9-19.6-11.1-19.6-22.7,0-18,13.7-30.5,33.6-30.5h8c2.9,0,5.9.4,8.7,1,12.4,2.9,19.6,11.1,19.6,22.7,0,18-13.6,30.5-33.6,30.5Z" fill="#0a0a17"/>
  <path d="M399.7,33.2c-18.5,0-32.5,6.8-40.6,19.6-4.1-12-14.5-19.6-31.3-19.6-12.4,0-23.6,4.4-32.1,12.6l-.7-11.4h-23.2l-16.7,94.8h26l8.3-47.4c3.1-17.2,13.2-27.1,28.9-27.1,12.9,0,19.2,6.6,19.2,20.5,0,3,0,5.7-.7,10.1l-7.7,43.9h26l7.7-44.1c3.5-20.5,13.3-30.5,29.5-30.5,13.1,0,19.2,6.6,19.2,20.5,0,3,0,5.7-.7,10.1l-7.7,43.9h26l7.7-44.1c.9-4.4,1.5-9.8,1.5-14.2-.1-22.6-15.4-37.6-38.6-37.6Z" fill="#0a0a17"/>
  <path d="M609.4,0c-8.2,0-16.2,6.3-17.7,14.6-1.4,7.7,3.6,13.5,11.9,13.5s16.1-6.1,17.6-14.4c1.5-7.8-3.3-13.7-11.8-13.7ZM590.1,34.3l-16.8,95.7c-1.3,7.7-4.8,11.2-11.6,11.2h-14.2l-3.9,22h23.3c19.4,0,28-8.7,31.9-30.6l17.3-98.2h-26v-.1Z" fill="#0a0a17"/>
  <path d="M937.4,33.2c-14.2,0-26.1,3.9-34.8,11.4l7.9-44.6h-26l-22.7,129.1h23.2l5.3-14.4c5.5,10.3,18.3,15.5,36.4,15.5,33,0,57.9-23.3,57.9-53.7,0-25.9-18.6-43.3-47.2-43.3ZM925.8,109.2c-18.6,0-29.8-8.9-29.8-23.8,0-18.1,14.4-31,34.1-31,18.6,0,28.4,9,28.4,23.8-.1,18.3-12.9,31-32.7,31Z" fill="#0a0a17"/>
  <path d="M687.4,34.9c-3-.3-9.4-.3-9.4-.3h0c-35.2.4-58.9,21.8-58.9,52.1,0,23.9,16.4,40.3,44,43.3,3,.3,10.8.3,10.8.3h0c26.8-.3,47.8-12.9,56.2-32.2h-26c-5.9,7.2-15.4,11.5-27,11.5h-5.1c-2.9,0-5.9-.4-8.7-1-11.4-2.7-18.3-9.8-19.4-20h87.9c.7-3.3,1.1-6.8,1.1-10.4-.1-24-17.9-40.4-45.5-43.3ZM677.2,55.3h4.5c2.9,0,5.9.4,8.7,1,9.4,2.2,15.8,7.5,18.4,15h-61.7c5.3-9.8,16.2-16,30.1-16Z" fill="#0a0a17"/>
  <path d="M205.3,17.2C196.1,6.2,182.6,0,168.3,0h-73c-11.7,0-22.6,4.2-31.1,11.3-8.4,7.1-14.5,17.1-16.5,28.7l-11.1,62.6c-3.2,18.1-20.2,26.4-30.6,26.5L0,163.1h156.7c23.6,0,43.5-16.8,47.6-40l11.5-66.6c2.5-14-1.4-28.4-10.5-39.3ZM181.4,49.7l-12,68.4c-1.1,6.3-6.6,11-13,11H63.7c3.6-6.1,6.4-14.7,7.3-19.3l11.4-64.6c1.1-6.3,6.7-10.9,13.1-10.9h73c5.3,0,8.6,2.9,10.1,4.7,1.5,1.7,3.8,5.5,2.8,10.7Z" fill="url(#linear-gradient)"/>
</svg>